<mxfile host="app.diagrams.net" agent="Mozilla/5.0 (Windows NT 10.0; Win64; x64) AppleWebKit/537.36 (KHTML, like Gecko) Chrome/138.0.0.0 Safari/537.36" version="27.2.0">
  <diagram name="Page-1" id="UG3h2oHKd8cI5t2Z76ql">
    <mxGraphModel dx="1025" dy="417" grid="1" gridSize="10" guides="1" tooltips="1" connect="1" arrows="1" fold="1" page="1" pageScale="1" pageWidth="850" pageHeight="1100" math="0" shadow="0">
      <root>
        <mxCell id="0" />
        <mxCell id="1" parent="0" />
        <mxCell id="Gwfefa4xqPAHv9ycmTIK-1" value="Products" style="rounded=0;whiteSpace=wrap;html=1;" vertex="1" parent="1">
          <mxGeometry x="240" y="210" width="120" height="60" as="geometry" />
        </mxCell>
        <mxCell id="Gwfefa4xqPAHv9ycmTIK-2" value="CoverageTypes" style="rounded=0;whiteSpace=wrap;html=1;" vertex="1" parent="1">
          <mxGeometry x="430" y="370" width="120" height="60" as="geometry" />
        </mxCell>
        <mxCell id="Gwfefa4xqPAHv9ycmTIK-4" style="edgeStyle=orthogonalEdgeStyle;rounded=0;orthogonalLoop=1;jettySize=auto;html=1;endArrow=ERone;endFill=0;startArrow=ERzeroToMany;startFill=0;" edge="1" parent="1" source="Gwfefa4xqPAHv9ycmTIK-3" target="Gwfefa4xqPAHv9ycmTIK-2">
          <mxGeometry relative="1" as="geometry">
            <Array as="points">
              <mxPoint x="520" y="320" />
              <mxPoint x="520" y="320" />
            </Array>
          </mxGeometry>
        </mxCell>
        <mxCell id="Gwfefa4xqPAHv9ycmTIK-3" value="CoverageAvailabilities" style="rounded=0;whiteSpace=wrap;html=1;" vertex="1" parent="1">
          <mxGeometry x="490" y="210" width="160" height="60" as="geometry" />
        </mxCell>
        <mxCell id="Gwfefa4xqPAHv9ycmTIK-5" value="CoverageLevels" style="rounded=0;whiteSpace=wrap;html=1;" vertex="1" parent="1">
          <mxGeometry x="590" y="370" width="120" height="60" as="geometry" />
        </mxCell>
        <mxCell id="Gwfefa4xqPAHv9ycmTIK-6" style="edgeStyle=orthogonalEdgeStyle;rounded=0;orthogonalLoop=1;jettySize=auto;html=1;endArrow=ERone;endFill=0;startArrow=ERzeroToMany;startFill=0;" edge="1" parent="1" source="Gwfefa4xqPAHv9ycmTIK-3" target="Gwfefa4xqPAHv9ycmTIK-5">
          <mxGeometry relative="1" as="geometry">
            <mxPoint x="640" y="300" as="sourcePoint" />
            <mxPoint x="640" y="400" as="targetPoint" />
            <Array as="points">
              <mxPoint x="620" y="320" />
              <mxPoint x="620" y="320" />
            </Array>
          </mxGeometry>
        </mxCell>
      </root>
    </mxGraphModel>
  </diagram>
</mxfile>
